<svg id="Calque_1" data-name="Calque 1" xmlns="http://www.w3.org/2000/svg" viewBox="0 0 542.18 137.56"><defs><style>.cls-1{fill:#fff;}</style></defs><path class="cls-1" d="M118.69,282.35h57.18c0,7.4,0,11.1,0,18.5q-17.78.31-35.55.69,0,18.7,0,37.41c11.14-.68,16.72-1,27.86-1.61,0,7.46,0,11.18,0,18.64-11.14.81-16.71,1.24-27.84,2.15q0,29.26-.05,58.52c-8.61,1.25-12.91,1.9-21.5,3.27Z" transform="translate(-118.69 -282.35)"/><path class="cls-1" d="M197.69,282.35H227q10.89,61,22.08,122c-8.65.71-13,1.09-21.62,1.9-1.54-9.69-2.32-14.55-3.86-24.29v.35c-9.83.77-14.74,1.17-24.55,2.05-1.59,10.06-2.39,15.11-4,25.25-8,.9-12,1.38-20,2.38Q186.13,347.1,197.69,282.35Zm23.36,83.22q-4.76-30.68-9.46-61.35h-.4q-4.81,31.35-9.58,62.7C209.39,366.35,213.28,366.08,221.05,365.57Z" transform="translate(-118.69 -282.35)"/><path class="cls-1" d="M260.77,282.35h21.61q-.06,25.2-.11,50.4,13.69-25.26,27.63-50.4h21.61q-13,21.66-25.83,43.43,12.94,36.92,26.06,73.77c-9.07.31-13.6.49-22.66.91q-9.15-26-18.2-52.12c-3.47,6.17-5.21,9.27-8.69,15.5l-.09,38.09c-8.66.54-13,.83-21.64,1.48Q260.61,342.89,260.77,282.35Z" transform="translate(-118.69 -282.35)"/><path class="cls-1" d="M343.11,282.35h58.95c0,6.65,0,10,0,16.61q-18.68,0-37.36,0,0,15.39,0,30.77,14.85-.09,29.71-.07v16.6q-14.85,0-29.72.1,0,17.88,0,35.75,18.72-.22,37.43-.12c0,6.65,0,10,0,16.61q-29.57-.21-59.13.59Q343,340.79,343.11,282.35Z" transform="translate(-118.69 -282.35)"/><path class="cls-1" d="M415.42,282.35h57.19c0,6.76,0,10.14,0,16.89q-17.79-.12-35.58-.19,0,16.27,0,32.56c11.18.13,16.76.21,27.94.42,0,6.73,0,10.1,0,16.83-11.18-.27-16.77-.38-27.95-.56l.06,50.93c-8.67-.24-13-.33-21.68-.46Q415.47,340.57,415.42,282.35Z" transform="translate(-118.69 -282.35)"/><path class="cls-1" d="M484,282.35h21.62q.12,51.48.25,103,17.8,1,35.59,2.36l0,17.56q-28.62-2.42-57.26-4.08Q484.14,341.76,484,282.35Z" transform="translate(-118.69 -282.35)"/><path class="cls-1" d="M552.59,282.35h21.62q.15,63.06.31,126.11c-8.64-.93-13-1.37-21.61-2.18Q552.76,344.32,552.59,282.35Z" transform="translate(-118.69 -282.35)"/><path class="cls-1" d="M610.48,346q-11.75-31.92-23.89-63.69h22.79Q616.76,303.66,624,325h.39q7.5-21.31,14.87-42.68h20.44Q648,315.11,636,347.73q12.74,36,24.89,72.19c-9.06-1.44-13.6-2.13-22.67-3.44q-7.76-24.14-15.72-48.18l-.39,0q-7.89,22-16,43.87c-8.15-1-12.23-1.51-20.39-2.44Q598.27,377.93,610.48,346Z" transform="translate(-118.69 -282.35)"/></svg>